<svg viewBox="0 0 24 24" xmlns="http://www.w3.org/2000/svg"><circle cx="12" cy="12" fill="#fdc109" r="5" class="fill-464646"></circle><path d="M21 13h-1a1 1 0 0 1 0-2h1a1 1 0 0 1 0 2ZM4 13H3a1 1 0 0 1 0-2h1a1 1 0 0 1 0 2ZM17.66 7.34a1 1 0 0 1-.66-.29 1 1 0 0 1 0-1.41l.71-.71a1 1 0 1 1 1.41 1.41l-.71.71a1 1 0 0 1-.75.29ZM5.64 19.36a1 1 0 0 1-.71-.29 1 1 0 0 1 0-1.41l.71-.66a1 1 0 0 1 1.41 1.41l-.71.71a1 1 0 0 1-.7.24ZM12 5a1 1 0 0 1-1-1V3a1 1 0 0 1 2 0v1a1 1 0 0 1-1 1ZM12 22a1 1 0 0 1-1-1v-1a1 1 0 0 1 2 0v1a1 1 0 0 1-1 1ZM6.34 7.34a1 1 0 0 1-.7-.29l-.71-.71a1 1 0 0 1 1.41-1.41l.71.71a1 1 0 0 1 0 1.41 1 1 0 0 1-.71.29ZM18.36 19.36a1 1 0 0 1-.7-.29l-.66-.71A1 1 0 0 1 18.36 17l.71.71a1 1 0 0 1 0 1.41 1 1 0 0 1-.71.24Z" fill="#fdc109" class="fill-464646"></path></svg>