<?xml version="1.0" standalone="no"?><!DOCTYPE svg PUBLIC "-//W3C//DTD SVG 1.1//EN" "http://www.w3.org/Graphics/SVG/1.1/DTD/svg11.dtd"><svg t="1696942121415" class="icon" viewBox="0 0 1152 1024" version="1.1" xmlns="http://www.w3.org/2000/svg" p-id="1464" xmlns:xlink="http://www.w3.org/1999/xlink" width="54" height="48"><path d="M127.7312 818.048c20.032 0 36.992 7.2 50.976 21.696 13.952 14.464 20.96 31.68 20.96 51.584v56.8c0 20.672-7.008 38.336-20.96 52.768-13.152 14.112-31.68 21.984-50.976 21.632H70.8992a66.88 66.88 0 0 1-49.952-21.632A73.248 73.248 0 0 1 0.0192 948.032v-56.64c0-20.032 6.976-37.216 20.96-51.68 12.8-13.984 30.88-21.856 49.824-21.696H127.6992z m900.704 0c26.336 0 48.96 7.2 67.968 21.696 18.944 14.464 28.48 31.68 28.48 51.584v56.8c0 20.672-9.536 38.336-28.48 52.768-19.008 14.464-41.632 21.632-67.968 21.632H404.6592c-27.2 0-50.336-7.168-69.344-21.632-18.976-14.528-28.48-32.032-28.48-52.864v-56.64c0-20.032 9.504-37.216 28.48-51.68 19.008-14.496 42.144-21.696 69.344-21.696h623.776zM818.0992 306.752v409.024l306.816-188.8-306.816-220.192zM127.7312 408.992c20.032 0 36.992 7.2 50.976 21.696a73.28 73.28 0 0 1 20.96 52.8v56.64c0 20.032-7.008 37.248-20.96 51.712a68.16 68.16 0 0 1-50.976 21.664H70.8992a66.912 66.912 0 0 1-49.952-21.664A72 72 0 0 1 0.0192 540.16v-56.768c0-20.672 6.976-38.368 20.96-52.736 12.8-13.952 30.88-21.824 49.824-21.696H127.6992z m510.88 0.032a76.16 76.16 0 0 1 54.432 21.696c15.2 14.464 22.848 32.064 22.848 52.8v56.64c0 20.032-7.648 37.248-22.848 51.712a76.256 76.256 0 0 1-54.432 21.664h-253.376a77.632 77.632 0 0 1-55.616-21.664 68.736 68.736 0 0 1-22.816-51.68v-56.768c0-20.672 7.616-38.368 22.816-52.736a77.792 77.792 0 0 1 55.616-21.696h253.376zM127.7312 0c20.032 0 36.992 7.008 50.976 21.12 13.952 14.048 20.96 31.456 20.96 52.256v56.64c0 20.768-7.008 38.368-20.96 52.8-13.152 14.112-31.68 22.016-50.976 21.664H70.8992a66.816 66.816 0 0 1-49.952-21.664A73.088 73.088 0 0 1 0.0192 130.016v-56.64C0.0192 52.576 6.9952 35.168 20.9792 21.12 34.8672 7.008 51.4752 0 70.8032 0H127.6992z m900.704 0c26.336 0 48.96 7.008 67.968 21.12 18.944 14.048 28.48 31.456 28.48 52.256v56.64c0 20.768-9.536 38.368-28.48 52.8-19.008 14.464-41.632 21.664-67.968 21.664H404.6592c-27.2 0-50.336-7.2-69.344-21.664-18.976-14.464-28.48-31.968-28.48-52.8v-56.64c0-20.8 9.504-38.208 28.48-52.256 19.072-14.112 42.144-21.12 69.344-21.12h623.776z" fill="#515151" p-id="1465"></path></svg>