<?xml version="1.0" standalone="no"?><!DOCTYPE svg PUBLIC "-//W3C//DTD SVG 1.1//EN" "http://www.w3.org/Graphics/SVG/1.1/DTD/svg11.dtd"><svg t="1696927833009" class="icon" viewBox="0 0 1152 1024" version="1.1" xmlns="http://www.w3.org/2000/svg" p-id="1464" xmlns:xlink="http://www.w3.org/1999/xlink" width="54" height="48"><path d="M127.3792 815.84a67.84 67.84 0 0 1 50.816 21.632c13.92 14.464 20.896 31.616 20.896 51.488v56.608c0 20.672-6.976 38.304-20.896 52.64-13.12 14.08-31.584 21.92-50.816 21.632H70.6752a66.816 66.816 0 0 1-49.792-21.632A73.184 73.184 0 0 1 0.0192 945.536v-56.48c0-20 6.976-37.12 20.928-51.584 12.736-13.888 30.816-21.76 49.632-21.632h56.768z m898.304 0c26.24 0 48.832 7.2 67.776 21.632 18.912 14.464 28.384 31.616 28.384 51.488v56.608c0 20.672-9.472 38.304-28.384 52.64-18.976 14.464-41.536 21.632-67.776 21.632H403.6352c-27.2 0-50.272-7.168-69.216-21.632-18.912-14.432-28.384-31.904-28.384-52.672v-56.48c0-20 9.472-37.12 28.384-51.584 18.976-14.432 42.016-21.632 69.216-21.632h622.048z m96.16-509.856V713.92l-305.92-188.32 305.92-219.584zM127.3792 407.904c20 0 36.896 7.2 50.816 21.632s20.896 32 20.896 52.672v56.48c0 20.032-6.976 37.152-20.896 51.584-13.12 14.08-31.584 21.92-50.816 21.632H70.6752a66.944 66.944 0 0 1-49.792-21.632A71.84 71.84 0 0 1 0.0192 538.752v-56.576c0-20.64 6.976-38.272 20.928-52.64 12.736-13.92 30.816-21.76 49.632-21.632h56.768z m509.504 0.032c21.024 0 39.104 7.2 54.304 21.632 15.104 14.432 22.72 32 22.72 52.672v56.48c0 20.032-7.616 37.152-22.72 51.584a76.064 76.064 0 0 1-54.304 21.632h-252.64a77.568 77.568 0 0 1-55.488-21.632 68.416 68.416 0 0 1-22.72-51.52v-56.576c0-20.64 7.584-38.272 22.72-52.64a77.504 77.504 0 0 1 55.488-21.632h252.64zM127.3792 0c20 0 36.896 7.04 50.816 21.056s20.896 31.424 20.896 52.096v56.512c0 20.672-6.976 38.272-20.896 52.672-13.12 14.08-31.584 21.92-50.816 21.632H70.6752a66.944 66.944 0 0 1-49.792-21.632A73.184 73.184 0 0 1 0.0192 129.664V73.152C0.0192 52.48 6.9952 35.072 20.9472 21.056 34.7392 7.04 51.3472 0 70.5792 0h56.768z m898.304 0c26.24 0 48.832 7.04 67.776 21.056 18.912 14.016 28.384 31.424 28.384 52.096v56.512c0 20.672-9.472 38.272-28.384 52.672-18.976 14.432-41.536 21.632-67.776 21.632H403.6352c-27.2 0-50.272-7.2-69.216-21.632-18.912-14.432-28.384-31.904-28.384-52.672V73.152c0-20.672 9.472-38.08 28.384-52.096C353.4592 7.04 376.4352 0 403.6352 0h622.048z" fill="#515151" p-id="1465"></path></svg>