<?xml version="1.0" standalone="no"?>
<!DOCTYPE svg PUBLIC "-//W3C//DTD SVG 20010904//EN"
 "http://www.w3.org/TR/2001/REC-SVG-20010904/DTD/svg10.dtd">
<svg version="1.0" xmlns="http://www.w3.org/2000/svg"
 width="500.000000pt" height="500.000000pt" viewBox="0 0 500.000000 500.000000"
 preserveAspectRatio="xMidYMid meet">

<g transform="translate(0.000000,500.000000) scale(0.100000,-0.100000)"
fill="#000000" stroke="none">
<path d="M2325 3950 c-137 -31 -287 -98 -385 -170 -186 -139 -305 -320 -351
-535 -18 -85 -16 -275 5 -359 37 -153 156 -331 286 -427 102 -76 318 -174 570
-258 217 -73 306 -118 365 -183 55 -61 70 -92 80 -165 8 -60 -12 -140 -53
-216 -35 -65 -121 -142 -183 -164 -27 -10 -49 -21 -49 -24 0 -15 81 -20 154
-10 183 26 314 143 362 324 41 153 -9 314 -135 437 -76 74 -181 137 -302 181
-46 17 -131 48 -189 68 -384 138 -490 200 -588 343 -62 90 -85 168 -90 308 -5
150 7 209 72 344 75 157 137 222 267 280 171 75 409 51 649 -65 91 -44 116
-62 185 -133 45 -46 94 -108 112 -141 59 -113 79 -230 48 -285 -18 -31 -19
-97 -2 -130 7 -13 28 -35 47 -48 28 -19 44 -23 83 -19 54 5 88 30 118 89 24
48 26 207 3 311 -21 98 -101 257 -173 343 -206 248 -589 376 -906 304z"/>
<path d="M2255 3646 c-84 -20 -141 -54 -203 -121 -67 -71 -92 -127 -112 -242
-29 -178 48 -362 201 -478 98 -75 140 -92 584 -250 203 -72 279 -112 364 -191
120 -111 170 -242 158 -417 -13 -179 -55 -304 -140 -415 -105 -136 -204 -191
-376 -208 -66 -7 -275 25 -369 56 -200 66 -339 171 -417 314 -71 131 -94 259
-60 340 35 83 -28 166 -125 166 -56 0 -96 -23 -120 -70 -29 -57 -29 -264 1
-370 55 -200 204 -391 394 -508 254 -155 658 -174 929 -43 434 210 630 657
475 1081 -66 179 -215 328 -429 428 -82 38 -185 76 -370 136 -267 87 -371 151
-435 268 -27 48 -29 62 -29 144 0 80 4 99 29 150 38 78 124 162 203 199 61 29
62 30 35 36 -46 11 -134 8 -188 -5z"/>
</g>
</svg>
